<svg width="24" height="24" viewBox="0 0 24 24" fill="none" xmlns="http://www.w3.org/2000/svg">
<path d="M12 15.5008C14.2 15.5008 15.95 13.7008 15.95 11.5508V6.50078C15.95 4.30078 14.15 2.55078 11.95 2.55078C9.75 2.55078 8 4.35078 8 6.50078V11.5508C8 13.7508 9.8 15.5008 11.95 15.5008H12ZM12 3.55078C13.65 3.55078 14.95 4.90078 14.95 6.50078V8.50078H8.95V6.50078C8.95 4.85078 10.3 3.55078 11.95 3.55078H12ZM9 9.50078H15V11.5508C15 13.2008 13.65 14.5008 12.05 14.5008C10.35 14.5008 9.05 13.1508 9.05 11.5508V9.50078H9Z" fill="#717171"/>
<path d="M17.4998 9.5C17.1998 9.5 16.9998 9.7 16.9998 10V11.95C16.9998 14.7 14.7498 16.9 12.0498 16.9H11.9998C9.2498 16.9 7.0498 14.65 7.0498 11.95V10C7.0498 9.7 6.8498 9.5 6.5498 9.5C6.2498 9.5 6.0498 9.7 6.0498 10V11.95C6.0498 15.05 8.4498 17.65 11.4998 17.9V19.05C9.5498 19.25 8.0498 20.5 8.0498 22C8.0498 22.3 8.2498 22.5 8.5498 22.5H15.4498C15.7498 22.5 15.9498 22.3 15.9498 22C15.9498 20.45 14.3998 19.2 12.3998 19.05V17.9C15.4998 17.7 17.9498 15.1 17.9498 11.95V10C17.9498 9.7 17.7498 9.5 17.4498 9.5H17.4998ZM14.8998 21.5H9.0998C9.4498 20.65 10.5998 20 11.9998 20C13.3498 20 14.5498 20.65 14.8498 21.5H14.8998Z" fill="#717171"/>
</svg>
