<svg width="32" height="32" viewBox="0 0 32 32" fill="none" xmlns="http://www.w3.org/2000/svg">
<path d="M13.9536 22.6802C14.0233 22.6105 14.0785 22.5279 14.1162 22.4369C14.1539 22.3459 14.1733 22.2484 14.1733 22.1499C14.1733 22.0514 14.1539 21.9539 14.1162 21.8629C14.0785 21.7719 14.0233 21.6892 13.9536 21.6196L9.09619 16.7622H24.7102C24.9091 16.7622 25.0999 16.6832 25.2405 16.5425C25.3812 16.4019 25.4602 16.2111 25.4602 16.0122C25.4602 15.8133 25.3812 15.6225 25.2405 15.4819C25.0999 15.3412 24.9091 15.2622 24.7102 15.2622H9.07178L13.9536 10.3804C14.0235 10.3108 14.0789 10.2281 14.1168 10.137C14.1547 10.046 14.1742 9.94838 14.1743 9.84978C14.1744 9.75117 14.155 9.65352 14.1174 9.5624C14.0797 9.47128 14.0244 9.38849 13.9547 9.31877C13.8849 9.24904 13.8021 9.19375 13.711 9.15606C13.6199 9.11838 13.5222 9.09902 13.4236 9.09912C13.325 9.09922 13.2274 9.11876 13.1364 9.15663C13.0453 9.1945 12.9627 9.24995 12.8931 9.31981L6.74316 15.4697C6.64067 15.5774 6.57348 15.7137 6.55057 15.8606L6.55035 15.8617C6.53711 15.9069 6.5281 15.9532 6.52344 16C6.52788 16.0378 6.53516 16.0752 6.54523 16.1119C6.54927 16.1433 6.55531 16.1743 6.56332 16.2049C6.57243 16.2422 6.58451 16.2786 6.59946 16.3139C6.63335 16.3898 6.67961 16.4594 6.73636 16.5201C6.73932 16.5231 6.74014 16.5273 6.74316 16.5303L6.75259 16.5397L6.75769 16.5448L12.8931 22.6802C12.9627 22.7498 13.0454 22.8051 13.1363 22.8428C13.2273 22.8805 13.3249 22.8999 13.4233 22.8999C13.5218 22.8999 13.6194 22.8805 13.7103 22.8428C13.8013 22.8051 13.884 22.7498 13.9536 22.6802Z" fill="#00693C"/>
</svg>
