<svg width="22" height="22" viewBox="0 0 22 22" fill="none" xmlns="http://www.w3.org/2000/svg">
<path d="M11 22C8.82441 22 6.69767 21.3549 4.88873 20.1462C3.07979 18.9375 1.66989 17.2195 0.83733 15.2095C0.00476617 13.1995 -0.213071 10.9878 0.211367 8.85401C0.635804 6.72022 1.68345 4.76021 3.22183 3.22183C4.76021 1.68345 6.72022 0.635804 8.85401 0.211367C10.9878 -0.213071 13.1995 0.00476617 15.2095 0.83733C17.2195 1.66989 18.9375 3.07979 20.1462 4.88873C21.3549 6.69767 22 8.82441 22 11C21.9967 13.9164 20.8367 16.7124 18.7745 18.7745C16.7124 20.8367 13.9164 21.9967 11 22ZM11 1.5C9.12108 1.5 7.28435 2.05717 5.72209 3.10104C4.15982 4.14492 2.94218 5.62861 2.22315 7.36451C1.50412 9.10041 1.31599 11.0105 1.68254 12.8534C2.0491 14.6962 2.95389 16.3889 4.28249 17.7175C5.61109 19.0461 7.30383 19.9509 9.14665 20.3175C10.9895 20.684 12.8996 20.4959 14.6355 19.7769C16.3714 19.0578 17.8551 17.8402 18.899 16.2779C19.9428 14.7157 20.5 12.8789 20.5 11C20.4971 8.48133 19.4953 6.06663 17.7144 4.28565C15.9334 2.50467 13.5187 1.50287 11 1.5Z" fill="#0F804F"/>
<path d="M9.79679 14.0009C9.69829 14.0011 9.60073 13.9817 9.50973 13.944C9.41873 13.9063 9.33607 13.851 9.26652 13.7812L6.77238 11.2873C6.63174 11.1467 6.55273 10.9559 6.55273 10.7571C6.55273 10.5582 6.63174 10.3674 6.77238 10.2268C6.91302 10.0861 7.10377 10.0071 7.30266 10.0071C7.50155 10.0071 7.69229 10.0861 7.83293 10.2268L9.79679 12.1904L13.9425 8.04491C14.0121 7.97504 14.0948 7.91959 14.1859 7.88173C14.2769 7.84386 14.3745 7.82432 14.4731 7.82422C14.5717 7.82412 14.6694 7.84347 14.7605 7.88116C14.8516 7.91885 14.9344 7.97414 15.0041 8.04387C15.0739 8.11359 15.1291 8.19638 15.1668 8.2875C15.2045 8.37861 15.2239 8.47627 15.2238 8.57487C15.2237 8.67348 15.2041 8.77109 15.1663 8.86214C15.1284 8.95318 15.073 9.03586 15.0031 9.10545L10.3271 13.7812C10.2575 13.851 10.1749 13.9063 10.0839 13.944C9.99287 13.9817 9.8953 14.0011 9.79679 14.0009Z" fill="#0F804F"/>
</svg>
