<svg width="24" height="24" viewBox="0 0 24 24" fill="none" xmlns="http://www.w3.org/2000/svg">
<path d="M19.9551 4H17.5001V3.885C17.5001 3.70311 17.4643 3.52301 17.3947 3.35496C17.3251 3.18692 17.2231 3.03423 17.0945 2.90562C16.9659 2.77701 16.8132 2.67499 16.6451 2.60539C16.4771 2.5358 16.297 2.49998 16.1151 2.5H15.8851C15.7032 2.49998 15.5231 2.5358 15.3551 2.60539C15.187 2.67499 15.0343 2.77701 14.9057 2.90562C14.7771 3.03423 14.6751 3.18692 14.6055 3.35496C14.5359 3.52301 14.5001 3.70311 14.5001 3.885V4H9.5001V3.885C9.50011 3.70311 9.4643 3.52301 9.3947 3.35496C9.3251 3.18692 9.22309 3.03423 9.09447 2.90562C8.96586 2.77701 8.81317 2.67499 8.64513 2.60539C8.47709 2.5358 8.29698 2.49998 8.1151 2.5H7.8851C7.70321 2.49998 7.5231 2.5358 7.35506 2.60539C7.18702 2.67499 7.03433 2.77701 6.90572 2.90562C6.77711 3.03423 6.67509 3.18692 6.60549 3.35496C6.53589 3.52301 6.50008 3.70311 6.5001 3.885V4H4.0451C3.76403 4.00418 3.49611 4.11973 3.30018 4.32129C3.10425 4.52285 2.99632 4.79393 3.0001 5.075V19.925C2.99632 20.2061 3.10426 20.4771 3.30019 20.6787C3.49612 20.8803 3.76403 20.9958 4.0451 21H19.9551C20.2362 20.9958 20.5041 20.8803 20.7 20.6787C20.8959 20.4771 21.0039 20.2061 21.0001 19.925V5.075C21.0039 4.79393 20.8959 4.52285 20.7 4.32129C20.5041 4.11973 20.2362 4.00418 19.9551 4V4ZM15.5001 3.885C15.4997 3.83433 15.5094 3.78409 15.5286 3.7372C15.5478 3.6903 15.5761 3.6477 15.612 3.61187C15.6478 3.57604 15.6904 3.5477 15.7373 3.52849C15.7842 3.50929 15.8344 3.4996 15.8851 3.5H16.1151C16.1658 3.4996 16.216 3.50929 16.2629 3.52849C16.3098 3.5477 16.3524 3.57604 16.3882 3.61187C16.4241 3.6477 16.4524 3.6903 16.4716 3.7372C16.4908 3.78409 16.5005 3.83433 16.5001 3.885V5.615C16.5005 5.66567 16.4908 5.71591 16.4716 5.7628C16.4524 5.80969 16.424 5.85229 16.3882 5.88812C16.3524 5.92395 16.3098 5.95229 16.2629 5.9715C16.216 5.99071 16.1658 6.0004 16.1151 6H15.8851C15.8344 6.0004 15.7842 5.99071 15.7373 5.9715C15.6904 5.95229 15.6478 5.92395 15.612 5.88812C15.5761 5.85229 15.5478 5.80969 15.5286 5.7628C15.5094 5.71591 15.4997 5.66567 15.5001 5.615V3.885ZM7.5001 3.885C7.4997 3.83433 7.50938 3.78409 7.52859 3.7372C7.54779 3.6903 7.57614 3.6477 7.61197 3.61187C7.6478 3.57604 7.6904 3.5477 7.73729 3.52849C7.78418 3.50929 7.83443 3.4996 7.8851 3.5H8.1151C8.16577 3.4996 8.21601 3.50929 8.2629 3.52849C8.30979 3.5477 8.35239 3.57604 8.38822 3.61187C8.42405 3.6477 8.4524 3.6903 8.4716 3.7372C8.49081 3.78409 8.5005 3.83433 8.5001 3.885V5.615C8.50049 5.66567 8.4908 5.71591 8.4716 5.7628C8.45239 5.80969 8.42404 5.85229 8.38821 5.88812C8.35238 5.92395 8.30978 5.95229 8.2629 5.9715C8.21601 5.99071 8.16576 6.0004 8.1151 6H7.8851C7.83443 6.0004 7.78419 5.99071 7.7373 5.9715C7.69041 5.95229 7.64781 5.92395 7.61198 5.88812C7.57615 5.85229 7.5478 5.80969 7.5286 5.7628C7.50939 5.71591 7.4997 5.66567 7.5001 5.615V3.885ZM4.0001 5.075C4.0001 5.03 4.0301 5 4.0451 5H6.5001V5.615C6.50008 5.79688 6.5359 5.97699 6.60549 6.14503C6.67509 6.31308 6.77711 6.46576 6.90572 6.59438C7.03433 6.72299 7.18702 6.82501 7.35506 6.8946C7.5231 6.9642 7.70321 7.00001 7.8851 7H8.1151C8.29698 7.00001 8.47709 6.9642 8.64513 6.8946C8.81317 6.82501 8.96586 6.72299 9.09447 6.59438C9.22308 6.46576 9.3251 6.31308 9.3947 6.14503C9.4643 5.97699 9.50011 5.79688 9.5001 5.615V5H14.5001V5.615C14.5001 5.79688 14.5359 5.97699 14.6055 6.14503C14.6751 6.31308 14.7771 6.46576 14.9057 6.59438C15.0343 6.72299 15.187 6.82501 15.3551 6.8946C15.5231 6.9642 15.7032 7.00001 15.8851 7H16.1151C16.297 7.00001 16.4771 6.9642 16.6451 6.8946C16.8132 6.82501 16.9659 6.72299 17.0945 6.59438C17.2231 6.46576 17.3251 6.31308 17.3947 6.14503C17.4643 5.97699 17.5001 5.79688 17.5001 5.615V5H19.9551C19.9701 5 20.0001 5.03 20.0001 5.075V8H4.0001V5.075ZM20.0001 19.925C20.0001 19.97 19.9701 20 19.9551 20H4.0451C4.0301 20 4.0001 19.97 4.0001 19.925V9H20.0001V19.925Z" fill="#3F3F3F"/>
<path d="M7.00146 13.4473C7.55375 13.4473 8.00146 12.9995 8.00146 12.4473C8.00146 11.895 7.55375 11.4473 7.00146 11.4473C6.44918 11.4473 6.00146 11.895 6.00146 12.4473C6.00146 12.9995 6.44918 13.4473 7.00146 13.4473Z" fill="#3F3F3F"/>
<path d="M11.9819 13.5527C12.5342 13.5527 12.9819 13.105 12.9819 12.5527C12.9819 12.0004 12.5342 11.5527 11.9819 11.5527C11.4296 11.5527 10.9819 12.0004 10.9819 12.5527C10.9819 13.105 11.4296 13.5527 11.9819 13.5527Z" fill="#3F3F3F"/>
<path d="M17 13.5527C17.5523 13.5527 18 13.105 18 12.5527C18 12.0004 17.5523 11.5527 17 11.5527C16.4477 11.5527 16 12.0004 16 12.5527C16 13.105 16.4477 13.5527 17 13.5527Z" fill="#3F3F3F"/>
<path d="M7.00146 18.0273C7.55375 18.0273 8.00146 17.5796 8.00146 17.0273C8.00146 16.4751 7.55375 16.0273 7.00146 16.0273C6.44918 16.0273 6.00146 16.4751 6.00146 17.0273C6.00146 17.5796 6.44918 18.0273 7.00146 18.0273Z" fill="#3F3F3F"/>
<path d="M11.9819 17.9727C12.5342 17.9727 12.9819 17.5249 12.9819 16.9727C12.9819 16.4204 12.5342 15.9727 11.9819 15.9727C11.4296 15.9727 10.9819 16.4204 10.9819 16.9727C10.9819 17.5249 11.4296 17.9727 11.9819 17.9727Z" fill="#3F3F3F"/>
<path d="M17 17.9727C17.5523 17.9727 18 17.5249 18 16.9727C18 16.4204 17.5523 15.9727 17 15.9727C16.4477 15.9727 16 16.4204 16 16.9727C16 17.5249 16.4477 17.9727 17 17.9727Z" fill="#3F3F3F"/>
</svg>
