<svg width="32" height="32" viewBox="0 0 32 32" fill="none" xmlns="http://www.w3.org/2000/svg">
<path d="M21.6346 9.32874L16.0129 14.9504L10.3742 9.31165C10.2335 9.17113 10.0428 9.09223 9.84398 9.09229C9.64514 9.09234 9.45446 9.17135 9.31386 9.31195C9.17326 9.45255 9.09425 9.64323 9.09419 9.84207C9.09414 10.0409 9.17304 10.2316 9.31356 10.3723L14.9523 16.011L9.31339 21.6499C9.24375 21.7196 9.18852 21.8022 9.15083 21.8932C9.11315 21.9842 9.09375 22.0817 9.09375 22.1802C9.09375 22.2787 9.11315 22.3762 9.15083 22.4672C9.18852 22.5581 9.24375 22.6408 9.31339 22.7104C9.38302 22.7801 9.46569 22.8353 9.55667 22.873C9.64765 22.9107 9.74516 22.9301 9.84364 22.9301C9.94211 22.9301 10.0396 22.9107 10.1306 22.873C10.2216 22.8353 10.3043 22.7801 10.3739 22.7104L16.0128 17.0715L21.6348 22.6935C21.7755 22.8341 21.9662 22.913 22.165 22.9129C22.3639 22.9128 22.5545 22.8338 22.6951 22.6932C22.8357 22.5526 22.9148 22.362 22.9148 22.1631C22.9149 21.9643 22.836 21.7736 22.6955 21.6329L17.0735 16.0109L22.6951 10.3892C22.8357 10.2486 22.9147 10.0579 22.9147 9.85898C22.9147 9.6601 22.8357 9.46936 22.6951 9.32873C22.5544 9.1881 22.3637 9.10909 22.1648 9.10909C21.9659 9.10909 21.7752 9.1881 21.6346 9.32873V9.32874Z" fill="#00693C"/>
</svg>
