<svg width="24" height="24" viewBox="0 0 24 24" fill="none" xmlns="http://www.w3.org/2000/svg">
<path d="M2.4458 14.5796C2.44568 14.4811 2.46503 14.3835 2.50274 14.2925C2.54045 14.2015 2.59577 14.1189 2.66553 14.0493L11.4653 5.24902C11.535 5.17936 11.6176 5.1241 11.7086 5.0864C11.7996 5.0487 11.8971 5.0293 11.9956 5.0293C12.0941 5.0293 12.1916 5.0487 12.2826 5.0864C12.3736 5.1241 12.4563 5.17936 12.5259 5.24902L21.3259 14.0493C21.4661 14.19 21.5447 14.3806 21.5445 14.5793C21.5443 14.7779 21.4653 14.9684 21.3249 15.1088C21.1844 15.2493 20.994 15.3283 20.7953 15.3285C20.5967 15.3287 20.4061 15.25 20.2654 15.1099L11.9956 6.83986L3.72608 15.1099C3.62119 15.2147 3.48756 15.2861 3.34209 15.3151C3.19662 15.344 3.04583 15.3291 2.9088 15.2724C2.77177 15.2156 2.65465 15.1195 2.57223 14.9962C2.48982 14.8729 2.44582 14.7279 2.4458 14.5796V14.5796Z" fill="#00693C"/>
</svg>
