<svg width="24" height="24" viewBox="0 0 24 24" fill="none" xmlns="http://www.w3.org/2000/svg">
<path d="M9.41586 21.5499C9.51437 21.55 9.61192 21.5307 9.70293 21.493C9.79393 21.4553 9.87658 21.3999 9.94614 21.3302L18.7465 12.5304C18.8161 12.4608 18.8714 12.3781 18.9091 12.2871C18.9468 12.1961 18.9662 12.0986 18.9662 12.0001C18.9662 11.9016 18.9468 11.8041 18.9091 11.7131C18.8714 11.6221 18.8161 11.5394 18.7465 11.4698L9.94616 2.66978C9.80542 2.5296 9.61482 2.45098 9.41619 2.45117C9.21755 2.45137 9.02711 2.53036 8.88665 2.67082C8.74619 2.81128 8.6672 3.00172 8.667 3.20036C8.66681 3.39899 8.74543 3.58959 8.88561 3.73033L17.1556 12.0001L8.88563 20.2696C8.78077 20.3745 8.70935 20.5081 8.68042 20.6536C8.65149 20.7991 8.66634 20.9499 8.72309 21.0869C8.77984 21.2239 8.87595 21.341 8.99926 21.4235C9.12257 21.5059 9.26755 21.5499 9.41586 21.5499Z" fill="#00693C"/>
</svg>
