<svg width="24" height="24" viewBox="0 0 24 24" fill="none" xmlns="http://www.w3.org/2000/svg">
<path d="M14.5752 21.549C14.4767 21.5491 14.3791 21.5298 14.2881 21.4921C14.1971 21.4543 14.1145 21.399 14.0449 21.3293L5.24463 12.5295C5.17497 12.4598 5.11971 12.3772 5.08201 12.2862C5.04431 12.1952 5.0249 12.0977 5.0249 11.9992C5.0249 11.9007 5.04431 11.8032 5.08201 11.7122C5.11971 11.6212 5.17497 11.5385 5.24463 11.4689L14.0449 2.66887C14.1146 2.59923 14.1972 2.54399 14.2882 2.5063C14.3792 2.46862 14.4767 2.44922 14.5752 2.44922C14.6737 2.44922 14.7712 2.46862 14.8622 2.5063C14.9532 2.54399 15.0358 2.59923 15.1055 2.66886C15.1751 2.7385 15.2303 2.82117 15.268 2.91216C15.3057 3.00314 15.3251 3.10066 15.3251 3.19914C15.3251 3.29762 15.3057 3.39513 15.268 3.48612C15.2303 3.5771 15.1751 3.65977 15.1055 3.72941L6.83545 11.9992L15.1055 20.2687C15.2103 20.3736 15.2817 20.5072 15.3107 20.6527C15.3396 20.7982 15.3247 20.949 15.268 21.086C15.2112 21.223 15.1151 21.3401 14.9918 21.4226C14.8685 21.505 14.7235 21.549 14.5752 21.549H14.5752Z" fill="#00693C"/>
</svg>
