<svg width="24" height="24" viewBox="0 0 24 24" fill="none" xmlns="http://www.w3.org/2000/svg">
<path d="M21.5451 9.41984C21.5452 9.51835 21.5259 9.61591 21.4881 9.70691C21.4504 9.79791 21.3951 9.88056 21.3254 9.95011L12.5256 18.7504C12.4559 18.8201 12.3733 18.8753 12.2823 18.913C12.1913 18.9507 12.0938 18.9702 11.9953 18.9702C11.8968 18.9702 11.7993 18.9507 11.7083 18.913C11.6173 18.8753 11.5346 18.8201 11.465 18.7504L2.66496 9.95011C2.52432 9.80948 2.44531 9.61873 2.44531 9.41984C2.44531 9.22095 2.52432 9.0302 2.66496 8.88957C2.8056 8.74893 2.99634 8.66992 3.19523 8.66992C3.39413 8.66992 3.58487 8.74893 3.72551 8.88957L11.9953 17.1596L20.2648 8.88957C20.3697 8.7847 20.5033 8.71329 20.6488 8.68436C20.7943 8.65543 20.9451 8.67028 21.0821 8.72704C21.2191 8.7838 21.3362 8.87991 21.4187 9.00322C21.5011 9.12654 21.5451 9.27152 21.5451 9.41984Z" fill="#00693C"/>
</svg>
