<svg width="32" height="32" viewBox="0 0 32 32" fill="none" xmlns="http://www.w3.org/2000/svg">
<path d="M26.4999 6.91569H16.4023C16.3886 6.91566 16.3752 6.91229 16.3632 6.90588C16.3512 6.89947 16.3409 6.89021 16.3333 6.87891L15.2786 5.29655C15.1493 5.10241 14.9739 4.94325 14.7682 4.83324C14.5625 4.72323 14.3328 4.66579 14.0995 4.66602H5.50187C4.92744 4.66668 4.37673 4.89517 3.97054 5.30135C3.56436 5.70754 3.33587 6.25825 3.33521 6.83268V25.9251C3.33566 26.2983 3.4841 26.6561 3.74797 26.9199C4.01184 27.1838 4.36959 27.3322 4.74276 27.3327H27.259C27.6322 27.3322 27.99 27.1838 28.2538 26.9199C28.5177 26.6561 28.6661 26.2983 28.6666 25.9251V9.08236C28.6659 8.50792 28.4374 7.95721 28.0312 7.55103C27.6251 7.14484 27.0744 6.91635 26.4999 6.91569ZM5.50187 5.99935H14.0995C14.1133 5.99937 14.1268 6.00276 14.139 6.00923C14.1511 6.0157 14.1615 6.02505 14.1692 6.03646L15.2239 7.61816C15.3529 7.81249 15.528 7.97181 15.7337 8.0819C15.9393 8.19199 16.169 8.24941 16.4022 8.24902H26.4999C26.7209 8.24923 26.9327 8.33709 27.0889 8.49333C27.2452 8.64956 27.333 8.8614 27.3333 9.08236V10.6735C27.3081 10.6722 27.2845 10.666 27.259 10.666H4.74276C4.71733 10.666 4.69365 10.6722 4.66854 10.6735V6.83268C4.66874 6.61173 4.75661 6.39989 4.91284 6.24365C5.06908 6.08742 5.28092 5.99955 5.50187 5.99935ZM27.3333 25.9251C27.3334 25.9349 27.3315 25.9446 27.3278 25.9537C27.3241 25.9627 27.3187 25.9709 27.3118 25.9779C27.3049 25.9848 27.2966 25.9902 27.2876 25.9939C27.2785 25.9976 27.2688 25.9995 27.259 25.9993H4.74276C4.73301 25.9994 4.72336 25.9974 4.71435 25.9937C4.70534 25.99 4.69716 25.9845 4.69027 25.9776C4.68337 25.9707 4.67791 25.9625 4.67418 25.9535C4.67045 25.9445 4.66853 25.9349 4.66854 25.9251V12.0736C4.66853 12.0638 4.67045 12.0542 4.67418 12.0452C4.67791 12.0362 4.68337 12.028 4.69027 12.0211C4.69716 12.0142 4.70534 12.0087 4.71435 12.005C4.72336 12.0013 4.73301 11.9993 4.74276 11.9993H27.259C27.2688 11.9993 27.2784 12.0013 27.2874 12.005C27.2964 12.0087 27.3046 12.0142 27.3115 12.0211C27.3184 12.028 27.3239 12.0362 27.3276 12.0452C27.3313 12.0542 27.3333 12.0638 27.3333 12.0736V25.9251Z" fill="#00693C"/>
</svg>
