<svg width="32" height="32" viewBox="0 0 32 32" fill="none" xmlns="http://www.w3.org/2000/svg">
<path d="M1.33317 25.9997C1.24561 25.9997 1.1589 25.9825 1.07799 25.949C0.997083 25.9155 0.92357 25.8664 0.861655 25.8045C0.799739 25.7426 0.750635 25.6691 0.717149 25.5882C0.683664 25.5073 0.666454 25.4206 0.666504 25.333V15.9997C0.666504 15.8229 0.736742 15.6533 0.861766 15.5283C0.98679 15.4032 1.15636 15.333 1.33317 15.333C1.50998 15.333 1.67955 15.4032 1.80458 15.5283C1.9296 15.6533 1.99984 15.8229 1.99984 15.9997V25.333C1.99989 25.4206 1.98268 25.5073 1.94919 25.5882C1.91571 25.6691 1.8666 25.7426 1.80469 25.8045C1.74277 25.8664 1.66926 25.9155 1.58835 25.949C1.50745 25.9825 1.42073 25.9997 1.33317 25.9997ZM1.33317 13.9997C1.24562 13.9997 1.15892 13.9825 1.07802 13.949C0.997128 13.9155 0.923626 13.8664 0.861715 13.8045C0.799805 13.7426 0.7507 13.6691 0.717205 13.5882C0.68371 13.5073 0.666481 13.4206 0.666504 13.333V11.9997C0.666504 11.8229 0.736742 11.6533 0.861766 11.5283C0.98679 11.4032 1.15636 11.333 1.33317 11.333C1.50998 11.333 1.67955 11.4032 1.80458 11.5283C1.9296 11.6533 1.99984 11.8229 1.99984 11.9997V13.333C1.99986 13.4206 1.98263 13.5073 1.94914 13.5882C1.91564 13.6691 1.86654 13.7426 1.80463 13.8045C1.74272 13.8664 1.66921 13.9155 1.58832 13.949C1.50743 13.9825 1.42072 13.9997 1.33317 13.9997Z" fill="#00693C"/>
<path d="M26.4997 6.91318H16.3997C16.3867 6.91328 16.3739 6.91031 16.3624 6.90452C16.3508 6.89872 16.3407 6.89027 16.333 6.87985L15.2797 5.29985C15.1508 5.10488 14.9755 4.94496 14.7695 4.83442C14.5636 4.72389 14.3334 4.66619 14.0997 4.66652H5.49969C5.21488 4.66554 4.9327 4.72091 4.66938 4.82945C4.40607 4.93799 4.16683 5.09755 3.96544 5.29894C3.76405 5.50033 3.6045 5.73957 3.49596 6.00288C3.38742 6.26619 3.33204 6.54838 3.33302 6.83318V25.9265C3.33423 26.2992 3.48282 26.6563 3.74636 26.9198C4.0099 27.1834 4.36699 27.332 4.73969 27.3332H27.2597C27.6324 27.332 27.9895 27.1834 28.253 26.9198C28.5166 26.6563 28.6651 26.2992 28.6664 25.9265V9.07985C28.6652 8.50556 28.4366 7.9551 28.0305 7.54901C27.6244 7.14293 27.074 6.91429 26.4997 6.91318ZM4.66635 6.83318C4.66644 6.61219 4.75426 6.40028 4.91052 6.24402C5.06678 6.08775 5.2787 5.99993 5.49969 5.99985H14.0997C14.1134 5.99959 14.127 6.00321 14.1388 6.01028C14.1505 6.01735 14.1601 6.0276 14.1664 6.03985L15.2264 7.61985C15.3547 7.81329 15.5292 7.97182 15.734 8.0812C15.9388 8.19057 16.1675 8.24738 16.3997 8.24652H26.4997C26.7203 8.24773 26.9316 8.33591 27.0876 8.49193C27.2436 8.64795 27.3318 8.85921 27.333 9.07985V10.6732C27.3064 10.6732 27.2864 10.6665 27.2597 10.6665H4.73969C4.71969 10.6665 4.69302 10.6732 4.66635 10.6732V6.83318ZM27.333 25.9265C27.3328 25.9459 27.3251 25.9645 27.3113 25.9782C27.2976 25.9919 27.2791 25.9997 27.2597 25.9999H4.73969C4.72029 25.9997 4.70174 25.9919 4.68802 25.9782C4.67431 25.9645 4.66653 25.9459 4.66635 25.9265V12.0732C4.66653 12.0538 4.67431 12.0352 4.68802 12.0215C4.70174 12.0078 4.72029 12 4.73969 11.9999H27.2597C27.2791 12 27.2976 12.0078 27.3113 12.0215C27.3251 12.0352 27.3328 12.0538 27.333 12.0732V25.9265Z" fill="#00693C"/>
<path d="M27.3332 9.08001V10.6733C27.3065 10.6733 27.2865 10.6667 27.2598 10.6667H4.73984C4.71984 10.6667 4.69317 10.6733 4.6665 10.6733V6.83335C4.66659 6.61236 4.75441 6.40044 4.91067 6.24418C5.06693 6.08792 5.27885 6.00009 5.49984 6.00001H14.0998C14.1136 5.99976 14.1271 6.00337 14.1389 6.01044C14.1507 6.01752 14.1603 6.02776 14.1665 6.04001L15.2265 7.62001C15.3549 7.81345 15.5293 7.97198 15.7341 8.08136C15.9389 8.19074 16.1677 8.24754 16.3998 8.24668H26.4998C26.7205 8.24789 26.9317 8.33608 27.0878 8.4921C27.2438 8.64811 27.332 8.85937 27.3332 9.08001Z" fill="#69BE28"/>
</svg>
