<svg width="22" height="22" viewBox="0 0 22 22" fill="none" xmlns="http://www.w3.org/2000/svg">
<path d="M11 22C8.82441 22 6.69767 21.3549 4.88873 20.1462C3.07979 18.9375 1.66989 17.2195 0.83733 15.2095C0.00476617 13.1995 -0.213071 10.9878 0.211367 8.85401C0.635804 6.72022 1.68345 4.76021 3.22183 3.22183C4.76021 1.68345 6.72022 0.635804 8.85401 0.211367C10.9878 -0.213071 13.1995 0.00476617 15.2095 0.83733C17.2195 1.66989 18.9375 3.07979 20.1462 4.88873C21.3549 6.69767 22 8.82441 22 11C21.9967 13.9164 20.8367 16.7124 18.7745 18.7745C16.7124 20.8367 13.9164 21.9967 11 22V22ZM11 1.5C9.12108 1.5 7.28435 2.05717 5.72209 3.10104C4.15982 4.14492 2.94218 5.62861 2.22315 7.36451C1.50412 9.10041 1.31599 11.0105 1.68254 12.8534C2.0491 14.6962 2.95389 16.3889 4.28249 17.7175C5.61109 19.0461 7.30383 19.9509 9.14665 20.3175C10.9895 20.684 12.8996 20.4959 14.6355 19.7769C16.3714 19.0578 17.8551 17.8402 18.899 16.2779C19.9428 14.7157 20.5 12.8789 20.5 11C20.4971 8.48133 19.4953 6.06663 17.7144 4.28565C15.9334 2.50467 13.5187 1.50287 11 1.5V1.5Z" fill="#C4C4C4"/>
<path d="M9.79664 14C9.69814 14.0001 9.60058 13.9807 9.50958 13.943C9.41857 13.9053 9.33592 13.85 9.26637 13.7802L6.77223 11.2863C6.63159 11.1457 6.55258 10.955 6.55258 10.7561C6.55258 10.5572 6.63159 10.3664 6.77223 10.2258C6.91287 10.0852 7.10361 10.0062 7.3025 10.0062C7.5014 10.0062 7.69214 10.0852 7.83278 10.2258L9.79664 12.1894L13.9424 8.04393C14.012 7.97407 14.0947 7.91862 14.1857 7.88075C14.2768 7.84288 14.3744 7.82334 14.473 7.82324C14.5716 7.82315 14.6692 7.8425 14.7604 7.88019C14.8515 7.91788 14.9343 7.97317 15.004 8.04289C15.0737 8.11261 15.129 8.1954 15.1667 8.28652C15.2044 8.37764 15.2237 8.47529 15.2236 8.5739C15.2235 8.6725 15.204 8.77012 15.1661 8.86116C15.1283 8.9522 15.0728 9.03489 15.0029 9.10447L10.3269 13.7803C10.2574 13.85 10.1747 13.9053 10.0837 13.943C9.99271 13.9807 9.89515 14.0001 9.79664 14V14Z" fill="#C4C4C4"/>
</svg>
