<svg width="32" height="32" viewBox="0 0 32 32" fill="none" xmlns="http://www.w3.org/2000/svg">
<path d="M16.0002 30.6668C13.0994 30.6668 10.2637 29.8067 7.85181 28.1951C5.43989 26.5835 3.56003 24.2928 2.44994 21.6129C1.33986 18.9329 1.04941 15.9839 1.61533 13.1388C2.18124 10.2938 3.57811 7.68044 5.62928 5.62927C7.68045 3.5781 10.2938 2.18124 13.1389 1.61532C15.9839 1.04941 18.9329 1.33985 21.6129 2.44994C24.2929 3.56002 26.5835 5.43989 28.1951 7.85181C29.8067 10.2637 30.6668 13.0994 30.6668 16.0002C30.6625 19.8887 29.1158 23.6166 26.3662 26.3662C23.6166 29.1158 19.8887 30.6624 16.0002 30.6668ZM16.0002 3.33351C13.4949 3.33351 11.046 4.07639 8.96295 5.46822C6.87993 6.86005 5.25641 8.83832 4.2977 11.1528C3.33899 13.4674 3.08815 16.0142 3.5769 18.4713C4.06564 20.9284 5.27202 23.1854 7.04349 24.9569C8.81496 26.7283 11.0719 27.9347 13.529 28.4235C15.9861 28.9122 18.533 28.6614 20.8475 27.7026C23.162 26.7439 25.1403 25.1204 26.5321 23.0374C27.924 20.9544 28.6668 18.5054 28.6668 16.0002C28.663 12.6419 27.3273 9.42233 24.9526 7.0477C22.578 4.67307 19.3584 3.33732 16.0002 3.33351Z" fill="#C30000"/>
<path d="M16 22.667C16.5523 22.667 17 22.2193 17 21.667C17 21.1147 16.5523 20.667 16 20.667C15.4477 20.667 15 21.1147 15 21.667C15 22.2193 15.4477 22.667 16 22.667Z" fill="#C30000"/>
<path d="M16 19.3602C15.7348 19.3602 15.4804 19.2548 15.2929 19.0673C15.1054 18.8797 15 18.6254 15 18.3602V10.3296C15 10.0644 15.1054 9.81002 15.2929 9.62249C15.4804 9.43495 15.7348 9.32959 16 9.32959C16.2652 9.32959 16.5196 9.43495 16.7071 9.62249C16.8946 9.81002 17 10.0644 17 10.3296V18.3602C17 18.6254 16.8946 18.8797 16.7071 19.0673C16.5196 19.2548 16.2652 19.3602 16 19.3602Z" fill="#C30000"/>
</svg>
