<svg width="24" height="24" viewBox="0 0 24 24" fill="none" xmlns="http://www.w3.org/2000/svg">
<path d="M12 17C11.8011 17 11.6103 16.921 11.4697 16.7803C11.329 16.6397 11.25 16.4489 11.25 16.25V10.25C11.25 10.0511 11.329 9.86032 11.4697 9.71967C11.6103 9.57902 11.8011 9.5 12 9.5C12.1989 9.5 12.3897 9.57902 12.5303 9.71967C12.671 9.86032 12.75 10.0511 12.75 10.25V16.25C12.75 16.4489 12.671 16.6397 12.5303 16.7803C12.3897 16.921 12.1989 17 12 17Z" fill="#0F4DBC"/>
<path d="M12 8.5C12.5523 8.5 13 8.05229 13 7.5C13 6.94772 12.5523 6.5 12 6.5C11.4477 6.5 11 6.94772 11 7.5C11 8.05229 11.4477 8.5 12 8.5Z" fill="#0F4DBC"/>
<path d="M12 23C9.82441 23 7.69767 22.3549 5.88873 21.1462C4.07979 19.9375 2.66989 18.2195 1.83733 16.2095C1.00477 14.1995 0.786929 11.9878 1.21137 9.85401C1.6358 7.72022 2.68345 5.76021 4.22183 4.22183C5.76021 2.68345 7.72022 1.6358 9.85401 1.21137C11.9878 0.786929 14.1995 1.00477 16.2095 1.83733C18.2195 2.66989 19.9375 4.07979 21.1462 5.88873C22.3549 7.69767 23 9.82441 23 12C22.9967 14.9164 21.8367 17.7124 19.7745 19.7745C17.7124 21.8367 14.9164 22.9967 12 23ZM12 2.5C10.1211 2.5 8.28435 3.05717 6.72209 4.10104C5.15982 5.14492 3.94218 6.62861 3.22315 8.36451C2.50412 10.1004 2.31599 12.0105 2.68254 13.8534C3.0491 15.6962 3.95389 17.3889 5.28249 18.7175C6.61109 20.0461 8.30383 20.9509 10.1466 21.3175C11.9895 21.684 13.8996 21.4959 15.6355 20.7769C17.3714 20.0578 18.8551 18.8402 19.899 17.2779C20.9428 15.7157 21.5 13.8789 21.5 12C21.4971 9.48133 20.4953 7.06663 18.7144 5.28565C16.9334 3.50467 14.5187 2.50287 12 2.5Z" fill="#0F4DBC"/>
</svg>
