<svg width="24" height="24" viewBox="0 0 24 24" fill="none" xmlns="http://www.w3.org/2000/svg">
<path d="M15.5717 8.46972C15.5021 8.40006 15.4194 8.34481 15.3284 8.30711C15.2374 8.2694 15.1399 8.25 15.0414 8.25C14.9429 8.25 14.8454 8.2694 14.7544 8.30711C14.6634 8.34481 14.5808 8.40006 14.5112 8.46972L12.0414 10.9395L9.5717 8.46972C9.43106 8.32909 9.24031 8.25008 9.04142 8.25008C8.84253 8.25008 8.65179 8.32909 8.51115 8.46973C8.37051 8.61036 8.2915 8.80111 8.2915 9C8.2915 9.19889 8.37051 9.38964 8.51115 9.53027L10.9809 12L8.51116 14.4697C8.37052 14.6104 8.29151 14.8011 8.29151 15C8.29151 15.1989 8.37052 15.3896 8.51115 15.5303C8.65179 15.6709 8.84254 15.7499 9.04143 15.7499C9.24032 15.7499 9.43106 15.6709 9.5717 15.5303L12.0414 13.0605L14.5112 15.5303C14.6518 15.6709 14.8425 15.7499 15.0414 15.7499C15.2403 15.7499 15.4311 15.6709 15.5717 15.5303C15.7123 15.3896 15.7913 15.1989 15.7913 15C15.7913 14.8011 15.7123 14.6104 15.5717 14.4697L13.102 12L15.5717 9.53027C15.6414 9.46065 15.6966 9.37798 15.7343 9.287C15.772 9.19601 15.7914 9.09849 15.7914 9C15.7914 8.90151 15.772 8.80399 15.7343 8.713C15.6966 8.62201 15.6414 8.53935 15.5717 8.46972Z" fill="#0F804F"/>
<path d="M12 1C9.82441 1 7.69767 1.64514 5.88873 2.85383C4.07979 4.06253 2.66989 5.78049 1.83733 7.79048C1.00477 9.80047 0.786929 12.0122 1.21137 14.146C1.6358 16.2798 2.68345 18.2398 4.22183 19.7782C5.76021 21.3166 7.72022 22.3642 9.85401 22.7886C11.9878 23.2131 14.1995 22.9952 16.2095 22.1627C18.2195 21.3301 19.9375 19.9202 21.1462 18.1113C22.3549 16.3023 23 14.1756 23 12C22.9967 9.08363 21.8367 6.28765 19.7745 4.22546C17.7124 2.16328 14.9164 1.00329 12 1ZM12 21.5C10.1211 21.5 8.28435 20.9428 6.72209 19.899C5.15982 18.8551 3.94218 17.3714 3.22315 15.6355C2.50412 13.8996 2.31599 11.9895 2.68254 10.1466C3.0491 8.30382 3.95389 6.61108 5.28249 5.28249C6.61109 3.95389 8.30383 3.0491 10.1466 2.68254C11.9895 2.31598 13.8996 2.50411 15.6355 3.22314C17.3714 3.94218 18.8551 5.15982 19.899 6.72208C20.9428 8.28435 21.5 10.1211 21.5 12C21.4971 14.5187 20.4953 16.9334 18.7144 18.7144C16.9334 20.4953 14.5187 21.4971 12 21.5Z" fill="#0F804F"/>
</svg>
