<svg width="24" height="24" viewBox="0 0 24 24" fill="none" xmlns="http://www.w3.org/2000/svg">
<path d="M9.73264 2.46877C11.0143 2.46613 12.2737 2.80378 13.3822 3.44721C14.4907 4.09065 15.4085 5.01681 16.0418 6.13108C16.6752 7.24534 17.0014 8.50777 16.9871 9.78937C16.9728 11.071 16.6186 12.3258 15.9606 13.4257L21.2766 18.7417C21.4166 18.8873 21.5211 19.0632 21.582 19.2558C21.6429 19.4484 21.6585 19.6524 21.6277 19.8521C21.5686 20.287 21.3658 20.6897 21.0515 20.9961L20.9948 21.0527C20.645 21.4158 20.1664 21.6266 19.6623 21.6397C19.4924 21.6435 19.3233 21.6135 19.165 21.5514C19.0068 21.4893 18.8624 21.3963 18.7405 21.2778L13.422 15.9593C12.4619 16.5276 11.3836 16.8667 10.271 16.9501C9.15847 17.0336 8.04166 16.8592 7.00752 16.4405C5.97339 16.0218 5.04982 15.3701 4.3087 14.5362C3.56758 13.7022 3.02891 12.7085 2.73461 11.6323C2.4403 10.5561 2.39831 9.42658 2.61189 8.33153C2.82547 7.23648 3.28887 6.2055 3.96602 5.31881C4.64317 4.43212 5.5158 3.71365 6.51599 3.21933C7.51618 2.725 8.61696 2.46815 9.73264 2.46877ZM9.73264 15.4785C10.8708 15.4785 11.9835 15.141 12.9299 14.5087C13.8763 13.8763 14.6139 12.9775 15.0495 11.9259C15.485 10.8744 15.599 9.71726 15.3769 8.60092C15.1549 7.48459 14.6068 6.45916 13.802 5.65433C12.9971 4.84949 11.9717 4.30139 10.8554 4.07934C9.73903 3.85729 8.58191 3.97125 7.53034 4.40683C6.47877 4.8424 5.57998 5.58002 4.94763 6.52641C4.31527 7.47279 3.97775 8.58544 3.97776 9.72365C3.97946 11.2494 4.58632 12.7122 5.6652 13.7911C6.74408 14.87 8.20687 15.4768 9.73264 15.4785V15.4785Z" fill="#00693C"/>
</svg>
