<svg width="37" height="34" viewBox="0 0 37 34" fill="none" xmlns="http://www.w3.org/2000/svg">
<g clip-path="url(#clip0_2242_10699)">
<path d="M23.6577 7.87868C17.0312 14.351 11.1163 21.4946 5.79883 29.0639L5.80322 29.0683C15.2763 20.8759 25.5796 13.6423 36.667 7.77776V7.7624C32.3291 7.59785 27.9912 7.63076 23.6577 7.87649V7.87868Z" fill="#69BE28"/>
<path d="M1.91526 33.3333H1.92185C7.66982 23.9277 14.3337 15.0881 22.0738 7.20946C21.1381 4.80484 19.2185 0 19.2185 0C16.5938 2.94434 14.2788 6.13221 12.1395 9.43856C8.01466 10.3798 3.94253 11.558 0 13.1047C0 13.1047 5.00559 16.4835 7.46116 18.2299C5.37898 23.0128 2.10854 32.7497 1.91306 33.3333H1.91526ZM29.3351 31.9665L29.3395 31.9599C27.9272 26.7338 26.5303 21.5011 25.1488 16.2597C21.7334 18.4581 18.3904 20.7618 15.1244 23.1773C19.906 26.0317 24.637 28.9717 29.3373 31.9665H29.3351Z" fill="#00693C"/>
</g>
<defs>
<clipPath id="clip0_2242_10699">
<rect width="36.6667" height="33.3333" fill="white"/>
</clipPath>
</defs>
</svg>
