<svg width="187" height="40" viewBox="0 0 187 40" fill="none" xmlns="http://www.w3.org/2000/svg">
<g clip-path="url(#clip0_2242_2765)">
<path d="M186.122 0H0V40H186.122V0Z" fill="white"/>
<path d="M13.4383 25.8005C16.4302 25.8005 18.4465 24.6711 19.1159 21.8531C20.1567 17.4708 13.8873 18.7756 14.4995 16.1806C14.7159 15.2778 15.2995 14.8392 16.12 14.8392C16.6057 14.8392 16.8832 14.9781 17.0057 15.2742C17.1322 15.5519 17.1077 15.9869 16.9689 16.579H20.1159L20.1853 16.2829C20.6383 14.3677 19.8261 12.8911 16.5649 12.8911C13.3036 12.8911 11.622 14.5614 11.1526 16.5461C10.0506 21.1879 16.3649 19.693 15.7322 22.3685C15.5649 23.0812 15.0506 23.8487 13.9036 23.8487C12.7567 23.8487 12.6547 23.136 12.8791 22.1967L12.9812 21.7617H9.83424L9.64241 22.5622C9.02608 25.1535 11.0669 25.8005 13.4383 25.8005ZM29.6995 22.4233H26.671L25.9281 25.5556H28.9567L29.6995 22.4233ZM37.6832 25.8005C38.9485 25.8005 40.2424 25.4861 41.0179 24.375H41.0547L40.8506 25.5556H43.0832L44.6628 18.8926H40.1036L39.6424 20.8407H41.173L41.0791 21.2391C40.6751 22.9423 40.071 23.8487 38.9649 23.8487C37.6587 23.8487 37.7281 22.7522 38.5363 19.3604C39.32 16.0563 39.7608 14.8392 41.1077 14.8392C42.3077 14.8392 42.1036 16.1111 41.9159 16.9116H45.0628C45.3934 15.5008 45.8383 12.8948 41.6302 12.8948C37.0057 12.8948 36.0628 15.541 35.0996 19.6053C34.1812 23.4832 34.2138 25.8005 37.6873 25.8005H37.6832ZM78.3404 16.1111L78.0342 17.3831H77.9975C77.8302 16.5278 77.2832 15.8663 75.8628 15.8663C73.1159 15.8663 72.1689 18.4649 71.6383 20.6981C71.022 23.2968 71.222 25.3217 73.4996 25.3217C74.573 25.3217 75.6383 25.0073 76.324 23.9255H76.3649L76.2302 24.503C75.8016 26.3012 75.4465 26.9116 74.3893 26.9116C74.0628 26.9116 73.822 26.8385 73.6546 26.7215C73.5077 26.5973 73.4587 26.4035 73.4628 26.144H70.5404C70.2057 27.5622 70.8138 28.761 73.871 28.761C77.2016 28.761 78.5893 27.3465 79.0914 25.2193L81.2506 16.1148H78.3322L78.3404 16.1111ZM77.1444 20.5994C76.6383 22.7193 76.1771 23.2785 75.324 23.2785C74.471 23.2785 74.324 22.6499 74.7934 20.6872C75.1608 19.1375 75.573 18.0592 76.6016 18.0592C77.5159 18.0592 77.5526 18.878 77.1444 20.5994ZM96.0669 15.9028C93.5444 15.9028 91.8383 16.8568 91.3934 18.7391C90.924 20.7201 92.0587 21.1769 94.4547 21.9554C95.3567 22.2515 95.4873 22.6682 95.3893 23.1031C95.2587 23.644 94.7689 24.0644 94.0342 24.0644C93.5322 24.0644 93.2791 23.8889 93.1649 23.6294C93.0751 23.348 93.124 22.9861 93.2057 22.5658H90.4057L90.3077 22.9825C89.8547 24.8648 90.822 25.8005 93.6383 25.8005C96.2424 25.8005 97.9404 24.6163 98.3894 22.723C99.2587 19.0717 93.9608 20.1828 94.3608 18.5125C94.4791 18.0081 94.8016 17.6426 95.6342 17.6426C96.2955 17.6426 96.6098 17.8728 96.4138 18.6879L96.373 18.8597H99.173L99.2424 18.5454C99.5689 17.1894 99.0179 15.9028 96.0628 15.9028H96.0669ZM144.916 16.1075H141.442L138.279 19.492H138.242L139.765 13.0812H136.602L133.642 25.5556H136.802L137.414 22.9898L138.467 21.992L139.589 25.5556H143.042L140.989 19.9123L144.916 16.1075Z" fill="#00693C"/>
<path d="M22.8629 25.6578C23.4629 25.6578 24.0793 25.6249 24.6956 25.5555L25.1446 23.6732C25.0017 23.6914 24.8221 23.7061 24.6874 23.7061C23.9446 23.7061 23.7282 23.4977 23.8793 22.8325L25.0099 18.0701H26.4711L26.9364 16.1147H25.4752L26.1364 13.3369H22.9813L22.3242 16.1147H21.018L20.5568 18.0701H21.8589L20.6629 23.114C20.1405 25.3143 20.6833 25.6615 22.867 25.6615L22.8629 25.6578Z" fill="#00693C"/>
<path d="M65.7857 16.1145H68.8225L68.5082 17.4376H68.5449C69.1531 16.6006 70.1245 15.8696 71.447 15.8696C71.6021 15.8696 71.7572 15.8696 71.9449 15.9062L71.3163 18.556C71.0184 18.5012 70.7694 18.4866 70.4592 18.4866C69.1939 18.4866 68.2633 18.9581 67.9694 20.1935L66.7 25.5443H63.5449L65.7817 16.1145H65.7857Z" fill="#00693C"/>
<path d="M54.86 20.844C55.5294 18.0261 56.7376 15.8696 60.3743 15.8696C64.2233 15.8696 64.2069 17.9749 63.5376 20.7929C62.8682 23.6109 61.66 25.7673 58.0274 25.7673C54.1825 25.7673 54.1947 23.662 54.8641 20.844H54.86ZM59.9539 17.7154C59.0192 17.7154 58.558 18.5304 58.0151 20.8112C57.4682 23.1065 57.5498 23.9252 58.4804 23.9252C59.411 23.9252 59.8355 23.143 60.3825 20.8294C60.9335 18.4976 60.9253 17.7154 59.9539 17.7154Z" fill="#00693C"/>
<path d="M111.716 19.0461L111.725 19.0132C113.1 18.7866 114.227 17.6572 114.574 16.2135C115.063 14.1448 113.725 13.1543 111.349 13.1543H106.267L103.316 25.5666H108.141C112.014 25.5666 113.206 23.5856 113.553 22.1236C114.157 19.5834 112.716 19.185 111.716 19.0461ZM110.247 21.7946C110.039 22.6609 109.414 23.4101 108.092 23.4101H107.096L107.896 20.0549H108.949C109.961 20.0549 110.537 20.5739 110.247 21.7946ZM111.198 16.6484C110.986 17.5366 110.386 18.1104 109.255 18.1104H108.361L109.027 15.3107H109.945C111.129 15.3107 111.353 16.0088 111.202 16.6484H111.198Z" fill="#00693C"/>
<path d="M131.602 15.866C130.43 15.866 129.39 16.3886 128.745 17.2256H128.704L128.969 16.1108H125.928L123.688 25.548H126.843L128.308 19.3711C128.528 18.4464 129.153 18.026 129.757 18.026C130.361 18.026 130.577 18.4281 130.414 19.1079L128.887 25.5443H132.047L133.724 18.4793C134.153 16.6627 133.39 15.8623 131.598 15.8623L131.602 15.866Z" fill="#00693C"/>
<path d="M120.574 15.8916C119.268 15.8916 118.337 16.0488 117.488 16.502C116.639 16.9552 116.027 17.7373 115.7 19.0276H118.505C118.717 18.2088 119.08 17.7373 119.958 17.7373C120.66 17.7373 120.864 18.1028 120.729 18.6767C120.558 19.3931 120.349 19.5319 119.341 19.7549C118.415 19.9632 117.207 20.1387 116.337 20.5224C115.468 20.9062 114.745 21.8309 114.48 22.9274C113.994 24.9669 114.831 25.8039 116.602 25.8039C117.656 25.8039 118.762 25.3141 119.386 24.4771H119.427C119.358 24.8463 119.309 25.2264 119.345 25.559H122.382C122.109 25.1387 122.325 24.2359 122.496 23.5195L123.647 18.673C124.121 16.6884 123.162 15.8843 120.574 15.8843V15.8916ZM119.786 22.5656C119.562 23.5085 118.876 23.8558 118.215 23.8558C117.635 23.8558 117.411 23.4026 117.586 22.6533C117.709 22.1306 117.937 21.8346 118.321 21.608C118.664 21.3996 119.096 21.3814 120.198 20.9135C120.109 21.2936 119.974 21.7834 119.786 22.5656Z" fill="#00693C"/>
<path d="M48.5206 21.2975L48.3859 21.8714C48.0389 23.3333 48.1002 24.0497 49.0144 24.0497C49.8308 24.0497 50.2144 23.5088 50.5736 22.3282H53.492C52.8797 24.6601 51.1899 25.7931 48.5859 25.7931C44.6185 25.7931 44.8961 23.3041 45.5614 20.4971C46.19 17.8509 47.5165 15.8809 50.9369 15.8809C54.8471 15.8809 54.594 18.0921 53.8308 21.2975H48.5206ZM51.1818 19.6601C51.4961 18.337 51.4716 17.6206 50.594 17.6206C49.5655 17.6206 49.2063 18.3882 48.9042 19.6601H51.1818Z" fill="#00693C"/>
<path d="M84.3899 21.2975L84.2552 21.8714C83.9082 23.3333 83.9695 24.0497 84.8838 24.0497C85.7001 24.0497 86.0838 23.5088 86.4429 22.3282H89.3613C88.7491 24.6601 87.0593 25.7931 84.4511 25.7931C80.4838 25.7931 80.7613 23.3041 81.4266 20.4971C82.0552 17.8509 83.3776 15.8809 86.8021 15.8809C90.7123 15.8809 90.4593 18.0921 89.696 21.2975H84.3858H84.3899ZM87.0552 19.6601C87.3695 18.337 87.345 17.6206 86.4674 17.6206C85.4389 17.6206 85.0797 18.3882 84.7776 19.6601H87.0552Z" fill="#00693C"/>
<path d="M9.12077 31.3448H9.76567L9.65955 31.787C9.54934 32.2585 9.12077 32.4815 8.88812 32.4815C8.32485 32.4815 8.37383 31.8236 8.62281 30.7819C8.87587 29.7 9.17383 29.2614 9.6473 29.2614C10.0391 29.2614 10.1044 29.6671 10.031 29.9888H10.9698C11.1779 29.1079 10.8595 28.6182 9.79016 28.6182C8.54118 28.6182 7.98608 29.3674 7.63914 30.8258C7.28404 32.3243 7.32893 33.1284 8.52893 33.1284C8.98608 33.1284 9.35342 32.9822 9.66363 32.6423H9.67587L9.582 33.0443H10.3004L10.8555 30.7015H9.27587L9.12077 31.3448ZM13.5534 29.6964C13.5004 29.6891 13.4391 29.6854 13.3861 29.6854C12.9983 29.6854 12.684 29.8901 12.4228 30.2044H12.4065L12.5085 29.7695H11.6146L10.8391 33.0407H11.7738L12.2391 31.0743C12.3453 30.6357 12.7453 30.4859 13.0718 30.4859C13.1698 30.4859 13.2677 30.4932 13.3616 30.4968L13.5534 29.6964ZM15.7738 29.7695L15.2595 31.9369C15.1738 32.3024 14.9534 32.4778 14.6351 32.4778C14.3575 32.4778 14.2677 32.3535 14.3453 32.0209L14.88 29.7658H13.9412L13.3657 32.1891C13.2146 32.8323 13.4922 33.1211 14.0718 33.1211C14.4677 33.1211 14.8391 32.9749 15.1126 32.6533H15.1249L15.031 33.037H15.9289L16.7044 29.7658H15.7698L15.7738 29.7695ZM19.0922 29.6854C18.7249 29.6854 18.4391 29.8097 18.1657 30.1167H18.1493L18.231 29.7695H17.3371L16.3085 34.1079H17.2432L17.5698 32.7337H17.582C17.7167 32.9968 17.9249 33.1247 18.2718 33.1247C19.0432 33.1247 19.5167 32.6204 19.8065 31.4033C20.0922 30.1898 19.8595 29.6854 19.0922 29.6854ZM18.8677 31.4033C18.7004 32.116 18.5289 32.4778 18.1249 32.4778C17.7208 32.4778 17.7167 32.116 17.8881 31.4033C18.0555 30.6942 18.2228 30.325 18.6391 30.325C19.0555 30.325 19.0391 30.6905 18.8718 31.4033M22.0677 29.6854C20.9983 29.6854 20.484 30.2848 20.2187 31.4033C19.9493 32.5436 20.1208 33.143 21.2473 33.1247C22.3208 33.1247 22.831 32.5217 23.0963 31.4033C23.3657 30.2702 23.1983 29.6671 22.0636 29.6854M22.1575 31.4033C21.9657 32.2183 21.7657 32.5509 21.382 32.5509C20.9208 32.5509 20.9942 32.0685 21.1534 31.4033C21.3126 30.7344 21.4677 30.2592 21.9289 30.2592C22.3085 30.2592 22.3493 30.5918 22.1575 31.4033ZM27.6881 28.6986H25.9779L24.9453 33.0407H25.9249L26.3371 31.3082H26.8595C27.782 31.3082 28.4922 30.9025 28.7085 30.0034C28.8636 29.3528 28.6759 28.7022 27.6881 28.7022M27.6718 30.0692C27.5698 30.5114 27.2555 30.7198 26.8636 30.7198H26.431L26.7412 29.4003H27.1493C27.6391 29.4003 27.7698 29.6452 27.6718 30.0692ZM31.0759 29.7C31.0228 29.6927 30.9616 29.6891 30.9085 29.6891C30.5208 29.6891 30.2106 29.8937 29.9412 30.2081H29.9289L30.031 29.7731H29.133L28.3575 33.0443H29.2922L29.7575 31.078C29.8595 30.6394 30.2636 30.4895 30.5902 30.4895C30.684 30.4895 30.7861 30.4968 30.88 30.5005L31.0718 29.7H31.0759ZM32.733 29.6891C31.6595 29.6891 31.1534 30.2885 30.8881 31.4069C30.6187 32.5473 30.7861 33.1467 31.9208 33.1284C32.9942 33.1284 33.5004 32.5253 33.7698 31.4069C34.0351 30.2739 33.8677 29.6708 32.7371 29.6891M32.831 31.4069C32.6391 32.222 32.4391 32.5546 32.0595 32.5546C31.5983 32.5546 31.6718 32.0721 31.831 31.4069C31.9902 30.738 32.1453 30.2629 32.6065 30.2629C32.9861 30.2629 33.0269 30.5955 32.831 31.4069ZM38.2922 29.6891C37.8514 29.6891 37.4677 29.8645 37.2473 30.2081H37.231C37.2106 29.8755 36.9412 29.6891 36.5126 29.6891C36.1167 29.6891 35.7983 29.8097 35.4922 30.1094H35.4759L35.5575 29.7731H34.6595L33.884 33.0443H34.8187L35.3289 30.8916C35.4187 30.5151 35.6514 30.3287 35.9534 30.3287C36.2187 30.3287 36.284 30.4859 36.2187 30.76L35.6759 33.0443H36.6106L37.1208 30.8916C37.2106 30.5151 37.4432 30.3287 37.7412 30.3287C38.0065 30.3287 38.0718 30.4859 38.0106 30.76L37.4677 33.0443H38.4024L38.9657 30.6649C39.1167 30.0326 38.9085 29.6891 38.2922 29.6891ZM41.1453 29.6891C39.88 29.6891 39.5004 30.5005 39.2922 31.374C39.1004 32.1927 38.933 33.1284 40.2922 33.1284C41.1698 33.1284 41.68 32.7044 41.8963 31.9405H41.0555C40.9044 32.3462 40.7249 32.5546 40.4106 32.5546C40.0636 32.5546 40.0391 32.1781 40.133 31.7943L40.1942 31.5312H42.0473L42.0922 31.3448C42.3289 30.3397 42.2432 29.6854 41.1493 29.6854M41.2718 31.0341H40.3126L40.3412 30.9062C40.4146 30.6028 40.6024 30.2592 40.9779 30.2592C41.3534 30.2592 41.3657 30.537 41.2718 31.0341ZM44.8922 29.6964C44.8391 29.6891 44.782 29.6854 44.7249 29.6854C44.3371 29.6854 44.0228 29.8901 43.7575 30.2044H43.7412L43.8473 29.7695H42.9493L42.1738 33.0407H43.1085L43.5779 31.0743C43.68 30.6357 44.084 30.4859 44.4106 30.4859C44.5044 30.4859 44.6065 30.4932 44.7004 30.4968L44.8881 29.6964H44.8922ZM46.4514 28.6511H45.5126L45.3412 29.3674H46.2759L46.4473 28.6511H46.4514ZM44.4718 33.0407H45.4106L46.1861 29.7695H45.2473L44.4718 33.0407ZM49.2187 30.9464C49.4024 30.1788 49.0677 29.6854 48.2065 29.6854C47.3453 29.6854 46.6391 30.0619 46.3167 31.4033C46.0024 32.719 46.3698 33.1247 47.3044 33.1247C48.2963 33.1247 48.8106 32.6423 49.0106 31.787H48.1167C47.9902 32.317 47.7942 32.5546 47.48 32.5546C47.0595 32.5546 47.0555 32.2183 47.2473 31.4142C47.4269 30.6613 47.5861 30.2958 48.0473 30.2958C48.4024 30.2958 48.3902 30.6357 48.3167 30.95H49.2146L49.2187 30.9464ZM51.28 29.6854C50.5779 29.6854 49.9412 29.9413 49.7575 30.6942L49.7412 30.7746H50.5861L50.6065 30.6832C50.6677 30.4274 50.8596 30.2592 51.1412 30.2592C51.4555 30.2592 51.5412 30.4091 51.48 30.6576C51.431 30.8769 51.3085 30.972 51.0146 31.0378L50.4555 31.1657C49.7698 31.3228 49.4351 31.5714 49.2881 32.1854C49.1861 32.6204 49.3004 33.1211 49.9493 33.1211C50.3983 33.1211 50.6881 33.037 50.982 32.6971H50.9983C50.9983 32.8068 50.9983 32.9347 51.031 33.037H51.9249C51.8718 32.847 51.8881 32.7081 51.9616 32.4047L52.3698 30.6832C52.5085 30.0948 52.3983 29.6818 51.284 29.6818M51.1534 32.0429C51.0677 32.4011 50.7085 32.5473 50.4555 32.5473C50.2024 32.5473 50.1493 32.3389 50.2106 32.0904C50.28 31.798 50.4677 31.6335 50.8636 31.5641C50.9861 31.5385 51.1534 31.4837 51.3044 31.3959L51.1534 32.0429Z" fill="#00693C"/>
<path d="M168.787 12.2405C163.579 16.8202 158.926 21.875 154.746 27.2295C162.195 21.4364 170.293 16.3195 179.011 12.1711V12.1601C175.603 12.0431 172.191 12.0687 168.787 12.2405Z" fill="#69BE28"/>
<path d="M151.692 30.252C156.21 23.5963 161.451 17.3427 167.537 11.7688C166.802 10.0656 165.292 6.6665 165.292 6.6665C163.23 8.74984 161.41 11.005 159.728 13.3441C156.484 14.0093 153.284 14.8427 150.186 15.9392C150.186 15.9392 154.12 18.3295 156.051 19.5649C154.414 22.9494 151.843 29.839 151.692 30.252ZM173.247 29.2835H173.251C172.141 25.581 171.043 21.8821 169.957 18.1724C167.271 19.7294 164.643 21.3558 162.075 23.0664C165.835 25.0839 169.557 27.1636 173.247 29.2835Z" fill="#00693C"/>
</g>
<defs>
<clipPath id="clip0_2242_2765">
<rect width="186.122" height="40" fill="white"/>
</clipPath>
</defs>
</svg>
