<svg width="32" height="32" viewBox="0 0 32 32" fill="none" xmlns="http://www.w3.org/2000/svg">
<path d="M9 10.4991V24.0591C9.0001 24.441 9.15185 24.8072 9.42188 25.0773C9.69191 25.3473 10.0581 25.499 10.44 25.4991H21.615C21.9104 25.5129 22.2008 25.4192 22.4325 25.2354C22.6642 25.0515 22.8214 24.79 22.875 24.4991C22.9059 24.3766 22.921 24.2505 22.92 24.1241L23 11.4941L23.005 10.4941L9 10.4991ZM21.92 24.1241C21.92 24.4991 21.72 24.4991 21.615 24.4991H10.44C10.3236 24.4981 10.2123 24.4514 10.13 24.3691C10.0477 24.2868 10.001 24.1755 10 24.0591V11.4991H13.485L21.995 11.4941L21.92 24.1241Z" fill="#3F3F3F"/>
<path d="M14 13.5V22.5C14 22.6326 13.9473 22.7598 13.8536 22.8536C13.7598 22.9473 13.6326 23 13.5 23C13.3674 23 13.2402 22.9473 13.1464 22.8536C13.0527 22.7598 13 22.6326 13 22.5V13.5C13 13.3674 13.0527 13.2402 13.1464 13.1464C13.2402 13.0527 13.3674 13 13.5 13C13.6326 13 13.7598 13.0527 13.8536 13.1464C13.9473 13.2402 14 13.3674 14 13.5Z" fill="#3F3F3F"/>
<path d="M18.5 23C18.5657 23 18.6307 22.9871 18.6914 22.962C18.7521 22.9369 18.8072 22.9001 18.8536 22.8536C18.9001 22.8072 18.9369 22.7521 18.962 22.6914C18.9871 22.6307 19 22.5657 19 22.5V13.5C19 13.3674 18.9473 13.2402 18.8536 13.1464C18.7598 13.0527 18.6326 13 18.5 13C18.3674 13 18.2402 13.0527 18.1464 13.1464C18.0527 13.2402 18 13.3674 18 13.5V22.5C18 22.5657 18.0129 22.6307 18.038 22.6914C18.0631 22.7521 18.0999 22.8072 18.1464 22.8536C18.1928 22.9001 18.2479 22.9369 18.3086 22.962C18.3693 22.9871 18.4343 23 18.5 23Z" fill="#3F3F3F"/>
<path d="M24 8.5H19.0169L19 6.99439C18.9985 6.86275 18.9452 6.737 18.8516 6.64444C18.758 6.55188 18.6316 6.49998 18.5 6.5H13.4775C13.4114 6.50002 13.3459 6.51315 13.2849 6.53864C13.2239 6.56412 13.1685 6.60145 13.122 6.64848C13.0755 6.6955 13.0388 6.75127 13.014 6.81257C12.9892 6.87388 12.9768 6.93949 12.9775 7.00561L12.9943 8.5H8C7.86739 8.5 7.74021 8.55268 7.64645 8.64645C7.55268 8.74021 7.5 8.86739 7.5 9C7.5 9.13261 7.55268 9.25979 7.64645 9.35355C7.74021 9.44732 7.86739 9.5 8 9.5H24C24.1326 9.5 24.2598 9.44732 24.3536 9.35355C24.4473 9.25979 24.5 9.13261 24.5 9C24.5 8.86739 24.4473 8.74021 24.3536 8.64645C24.2598 8.55268 24.1326 8.5 24 8.5ZM13.9834 7.5H18.0054L18.0167 8.5H13.9945L13.9834 7.5Z" fill="#3F3F3F"/>
</svg>
